<svg xmlns="http://www.w3.org/2000/svg" xmlns:xlink="http://www.w3.org/1999/xlink" width="2560" zoomAndPan="magnify" viewBox="0 0 1920 1079.999946" height="1440" preserveAspectRatio="xMidYMid meet" version="1.2"><defs/><g id="1f627ef465"><g style="fill:#000000;fill-opacity:1;"><g transform="translate(36.813125, 699.374916)"><path style="stroke:none" d="M 211.84375 -256 C 214.1875 -256 215.359375 -255.039062 215.359375 -253.125 L 215.359375 -2.875 C 215.359375 -0.957031 214.1875 0 211.84375 0 L 169.59375 0 C 169.382812 0 168.90625 -0.101562 168.15625 -0.3125 C 167.414062 -0.53125 166.9375 -0.742188 166.71875 -0.953125 L 48.953125 -169.59375 L 48.953125 -61.4375 L 0 -61.4375 L 0 -253.125 C 0 -255.039062 1.066406 -256 3.203125 -256 L 45.765625 -256 C 46.191406 -256 46.722656 -255.945312 47.359375 -255.84375 C 47.992188 -255.738281 48.421875 -255.472656 48.640625 -255.046875 L 166.71875 -86.40625 L 166.71875 -253.125 C 166.71875 -255.039062 168 -256 170.5625 -256 Z M 211.84375 -256 "/></g></g><g style="fill:#000000;fill-opacity:1;"><g transform="translate(263.049201, 699.374916)"><path style="stroke:none" d="M 200.953125 -3.84375 C 201.378906 -2.988281 201.273438 -2.132812 200.640625 -1.28125 C 200.003906 -0.425781 199.148438 0 198.078125 0 L 153.921875 0 C 152.429688 0 151.472656 -0.640625 151.046875 -1.921875 L 100.484375 -144.640625 L 50.5625 -1.921875 C 50.34375 -0.640625 49.273438 0 47.359375 0 L 3.515625 0 C 2.023438 0 1.015625 -0.425781 0.484375 -1.28125 C -0.046875 -2.132812 -0.101562 -2.988281 0.3125 -3.84375 L 97.28125 -254.078125 C 97.707031 -255.359375 98.773438 -256 100.484375 -256 C 102.191406 -256 103.257812 -255.359375 103.6875 -254.078125 Z M 200.953125 -3.84375 "/></g></g><g style="fill:#000000;fill-opacity:1;"><g transform="translate(474.245544, 699.374916)"><path style="stroke:none" d="M 104.3125 -43.84375 C 106.664062 -43.84375 107.84375 -42.878906 107.84375 -40.953125 L 107.84375 -2.875 C 107.84375 -0.957031 106.664062 0 104.3125 0 L 3.515625 0 C 1.171875 0 0 -0.957031 0 -2.875 L 0 -40.953125 C 0 -42.878906 1.171875 -43.84375 3.515625 -43.84375 L 29.765625 -43.84375 L 29.765625 -256 L 78.71875 -256 L 78.71875 -43.84375 Z M 104.3125 -43.84375 "/></g></g><g style="fill:#000000;fill-opacity:1;"><g transform="translate(587.52355, 699.374916)"><path style="stroke:none" d="M 21.4375 -212.15625 C 19.09375 -212.15625 17.921875 -213.117188 17.921875 -215.046875 L 17.921875 -253.125 C 17.921875 -255.039062 19.09375 -256 21.4375 -256 L 108.484375 -256 C 110.617188 -256 111.6875 -255.039062 111.6875 -253.125 L 111.6875 -212.15625 Z M 63.046875 -168.3125 L 111.6875 -168.3125 L 111.6875 -75.515625 C 111.6875 -62.929688 109.816406 -52.316406 106.078125 -43.671875 C 102.347656 -35.035156 97.601562 -27.941406 91.84375 -22.390625 C 86.082031 -16.847656 79.945312 -12.53125 73.4375 -9.4375 C 66.9375 -6.34375 60.804688 -4.15625 55.046875 -2.875 C 49.285156 -1.59375 44.535156 -0.789062 40.796875 -0.46875 C 37.066406 -0.15625 35.203125 0 35.203125 0 L 3.515625 0 C 1.171875 0 0 -0.957031 0 -2.875 L 0 -44.484375 C 0 -46.398438 1.171875 -47.359375 3.515625 -47.359375 L 35.203125 -47.359375 C 42.242188 -47.359375 47.628906 -48.796875 51.359375 -51.671875 C 55.085938 -54.554688 57.804688 -57.8125 59.515625 -61.4375 C 61.222656 -65.0625 62.238281 -68.3125 62.5625 -71.1875 C 62.882812 -74.070312 63.046875 -75.515625 63.046875 -75.515625 Z M 63.046875 -168.3125 "/></g></g><g style="fill:#000000;fill-opacity:1;"><g transform="translate(704.961481, 699.374916)"><path style="stroke:none" d="M 200.953125 -3.84375 C 201.378906 -2.988281 201.273438 -2.132812 200.640625 -1.28125 C 200.003906 -0.425781 199.148438 0 198.078125 0 L 153.921875 0 C 152.429688 0 151.472656 -0.640625 151.046875 -1.921875 L 100.484375 -144.640625 L 50.5625 -1.921875 C 50.34375 -0.640625 49.273438 0 47.359375 0 L 3.515625 0 C 2.023438 0 1.015625 -0.425781 0.484375 -1.28125 C -0.046875 -2.132812 -0.101562 -2.988281 0.3125 -3.84375 L 97.28125 -254.078125 C 97.707031 -255.359375 98.773438 -256 100.484375 -256 C 102.191406 -256 103.257812 -255.359375 103.6875 -254.078125 Z M 200.953125 -3.84375 "/></g></g><g style="fill:#000000;fill-opacity:1;"><g transform="translate(916.157824, 699.374916)"><path style="stroke:none" d="M 138.234375 -47.6875 C 140.585938 -47.6875 141.765625 -46.617188 141.765625 -44.484375 L 141.765625 -2.875 C 141.765625 -0.957031 140.585938 0 138.234375 0 L 3.515625 0 C 1.171875 0 0 -0.957031 0 -2.875 L 0 -47.6875 Z M 48.953125 -96.640625 L 0 -96.640625 L 0 -253.125 C 0 -255.039062 1.171875 -256 3.515625 -256 L 45.765625 -256 C 47.890625 -256 48.953125 -255.039062 48.953125 -253.125 Z M 48.953125 -96.640625 "/></g></g><g style="fill:#000000;fill-opacity:1;"><g transform="translate(1065.275241, 699.374916)"><path style="stroke:none" d="M 188.796875 -256 C 190.929688 -256 192 -255.039062 192 -253.125 L 192 -85.4375 C 192 -67.519531 187.785156 -52.160156 179.359375 -39.359375 C 170.929688 -26.554688 159.460938 -16.796875 144.953125 -10.078125 C 130.453125 -3.359375 114.132812 0 96 0 C 78.507812 0 62.457031 -3.460938 47.84375 -10.390625 C 33.226562 -17.328125 21.597656 -27.195312 12.953125 -40 C 4.316406 -52.800781 0 -67.945312 0 -85.4375 L 0 -209.59375 L 48.3125 -209.59375 L 48.3125 -85.765625 C 49.8125 -73.171875 55.203125 -63.566406 64.484375 -56.953125 C 73.765625 -50.347656 84.269531 -47.046875 96 -47.046875 C 104.101562 -47.046875 111.78125 -48.429688 119.03125 -51.203125 C 126.289062 -53.972656 132.210938 -58.238281 136.796875 -64 C 141.390625 -69.757812 143.6875 -76.90625 143.6875 -85.4375 L 143.6875 -253.125 C 143.6875 -255.039062 144.859375 -256 147.203125 -256 Z M 188.796875 -256 "/></g></g><g style="fill:#000000;fill-opacity:1;"><g transform="translate(1266.87169, 699.374916)"><path style="stroke:none" d="M 229.125 -61.765625 L 229.125 -143.046875 L 163.84375 -12.15625 C 163.414062 -10.875 162.453125 -10.234375 160.953125 -10.234375 L 121.59375 -10.234375 C 119.894531 -10.234375 118.832031 -10.875 118.40625 -12.15625 L 48.953125 -146.5625 L 48.953125 -2.875 C 48.953125 -0.957031 47.78125 0 45.4375 0 L 3.203125 0 C 1.066406 0 0 -0.957031 0 -2.875 L 0 -253.125 C 0 -255.039062 1.066406 -256 3.203125 -256 L 46.078125 -256 C 47.785156 -256 48.851562 -255.359375 49.28125 -254.078125 L 141.125 -66.5625 L 228.484375 -254.078125 C 229.335938 -255.359375 230.507812 -256 232 -256 L 274.234375 -256 C 276.585938 -256 277.765625 -255.039062 277.765625 -253.125 L 277.765625 -61.765625 Z M 229.125 -61.765625 "/></g></g><g style="fill:#000000;fill-opacity:1;"><g transform="translate(1558.706623, 699.374916)"><path style="stroke:none" d="M 104.3125 -43.84375 C 106.664062 -43.84375 107.84375 -42.878906 107.84375 -40.953125 L 107.84375 -2.875 C 107.84375 -0.957031 106.664062 0 104.3125 0 L 3.515625 0 C 1.171875 0 0 -0.957031 0 -2.875 L 0 -40.953125 C 0 -42.878906 1.171875 -43.84375 3.515625 -43.84375 L 29.765625 -43.84375 L 29.765625 -256 L 78.71875 -256 L 78.71875 -43.84375 Z M 104.3125 -43.84375 "/></g></g><g style="fill:#000000;fill-opacity:1;"><g transform="translate(1671.984719, 699.374916)"><path style="stroke:none" d="M 200.953125 -3.84375 C 201.378906 -2.988281 201.273438 -2.132812 200.640625 -1.28125 C 200.003906 -0.425781 199.148438 0 198.078125 0 L 153.921875 0 C 152.429688 0 151.472656 -0.640625 151.046875 -1.921875 L 100.484375 -144.640625 L 50.5625 -1.921875 C 50.34375 -0.640625 49.273438 0 47.359375 0 L 3.515625 0 C 2.023438 0 1.015625 -0.425781 0.484375 -1.28125 C -0.046875 -2.132812 -0.101562 -2.988281 0.3125 -3.84375 L 97.28125 -254.078125 C 97.707031 -255.359375 98.773438 -256 100.484375 -256 C 102.191406 -256 103.257812 -255.359375 103.6875 -254.078125 Z M 200.953125 -3.84375 "/></g></g></g></svg>